<svg viewBox="0 0 1200 850" xmlns="http://www.w3.org/2000/svg" role="img" aria-labelledby="t d" font-family="Helvetica, Arial, sans-serif">
<title id="t">PZ7020-StarLite accelerator wiring</title>
<desc id="d">Top view of the PZ7020-StarLite (vendor PCB geometry) wired as the Orange Pi 4 Pro's accelerator: Teensy 4.1 geometry bus on JM1 pins 9-27 with grounds on 4 and 33-35, fan on JM1 pins 1/3/5/7, ETH-PS to the Orange Pi, HDMI to a monitor, JTAG USB-C for power, UART USB-C for the console, boot jumper on SD.</desc>
<rect width="1200" height="850" fill="#0d1117"/>
<text x="600.0" y="34" font-size="24" fill="#e6edf3" text-anchor="middle" font-weight="bold">PZ7020-StarLite — wired as the Orange Pi's accelerator</text>
<text x="600.0" y="58" font-size="14" fill="#8b949e" text-anchor="middle">top view, component side up • geometry from the vendor PCB drawing • JM1 signals from accel/gpu/WIRING.md</text>
<rect x="250.0" y="205.0" width="630.0" height="420.0" rx="6" fill="#21262d" stroke="#e6edf3" stroke-width="2.5"/>
<rect x="486.6" y="359.0" width="119.0" height="119.0" rx="3" fill="#161b22" stroke="#8b949e" stroke-width="1.5"/>
<text x="546.1" y="418.5" font-size="15" fill="#e6edf3" text-anchor="middle" font-weight="bold">Zynq</text>
<text x="546.1" y="436.5" font-size="12" fill="#8b949e" text-anchor="middle">XC7Z020</text>
<rect x="240.9" y="461.2" width="78.4" height="105.0" rx="3" fill="#161b22" stroke="#58a6ff" stroke-width="2.5"/>
<text x="280.1" y="518.7" font-size="14" fill="#e6edf3" text-anchor="middle" font-weight="bold">HDMI</text>
<rect x="242.3" y="258.2" width="53.2" height="63.0" rx="3" fill="#161b22" stroke="#f85149" stroke-width="2.5"/>
<text x="268.9" y="294.7" font-size="12" fill="#e6edf3" text-anchor="middle" font-weight="bold">J8</text>
<rect x="242.3" y="353.4" width="53.2" height="63.0" rx="3" fill="#161b22" stroke="#8b949e" stroke-width="2.5"/>
<text x="268.9" y="389.9" font-size="12" fill="#e6edf3" text-anchor="middle" font-weight="bold">J2</text>
<rect x="745.6" y="312.1" width="150.5" height="122.5" rx="3" fill="#161b22" stroke="#3fb950" stroke-width="2.5"/>
<text x="820.8" y="373.3" font-size="15" fill="#e6edf3" text-anchor="middle" font-weight="bold">ETH-PS</text>
<text x="820.8" y="391.3" font-size="12" fill="#8b949e" text-anchor="middle">J6 • eth0</text>
<rect x="745.6" y="442.3" width="150.5" height="122.5" rx="3" fill="#161b22" stroke="#8b949e" stroke-width="1.5"/>
<text x="820.8" y="503.5" font-size="15" fill="#e6edf3" text-anchor="middle" font-weight="bold">ETH-PL</text>
<text x="820.8" y="521.5" font-size="12" fill="#8b949e" text-anchor="middle">J7 • eth1</text>
<rect x="797.4" y="245.6" width="98.7" height="58.8" rx="3" fill="#161b22" stroke="#8b949e" stroke-width="1.5"/>
<text x="846.8" y="280.0" font-size="12" fill="#e6edf3" text-anchor="middle" font-weight="bold">USB-A</text>
<rect x="335.4" y="561.3" width="404.6" height="63.7" rx="3" fill="none" stroke="#484f58" stroke-dasharray="6 4"/>
<rect x="335.4" y="205.7" width="404.6" height="63.7" rx="3" fill="none" stroke="#484f58" stroke-dasharray="6 4"/>
<text x="537.0" y="555.0" font-size="15" fill="#8b949e" text-anchor="middle">JM2 (bottom header) — not used by this build</text>
<circle cx="706.47" cy="584.12" r="5" fill="#30363d"/>
<circle cx="706.47" cy="601.90" r="5" fill="#30363d"/>
<circle cx="688.69" cy="584.12" r="5" fill="#30363d"/>
<circle cx="688.69" cy="601.90" r="5" fill="#30363d"/>
<circle cx="670.91" cy="584.12" r="5" fill="#30363d"/>
<circle cx="670.91" cy="601.90" r="5" fill="#30363d"/>
<circle cx="653.13" cy="584.12" r="5" fill="#30363d"/>
<circle cx="653.13" cy="601.90" r="5" fill="#30363d"/>
<circle cx="635.35" cy="584.12" r="5" fill="#30363d"/>
<circle cx="635.35" cy="601.90" r="5" fill="#30363d"/>
<circle cx="617.57" cy="584.12" r="5" fill="#30363d"/>
<circle cx="617.57" cy="601.90" r="5" fill="#30363d"/>
<circle cx="599.79" cy="584.12" r="5" fill="#30363d"/>
<circle cx="599.79" cy="601.90" r="5" fill="#30363d"/>
<circle cx="582.01" cy="584.12" r="5" fill="#30363d"/>
<circle cx="582.01" cy="601.90" r="5" fill="#30363d"/>
<circle cx="564.23" cy="584.12" r="5" fill="#30363d"/>
<circle cx="564.23" cy="601.90" r="5" fill="#30363d"/>
<circle cx="546.45" cy="584.12" r="5" fill="#30363d"/>
<circle cx="546.45" cy="601.90" r="5" fill="#30363d"/>
<circle cx="528.67" cy="584.12" r="5" fill="#30363d"/>
<circle cx="528.67" cy="601.90" r="5" fill="#30363d"/>
<circle cx="510.89" cy="584.12" r="5" fill="#30363d"/>
<circle cx="510.89" cy="601.90" r="5" fill="#30363d"/>
<circle cx="493.11" cy="584.12" r="5" fill="#30363d"/>
<circle cx="493.11" cy="601.90" r="5" fill="#30363d"/>
<circle cx="475.33" cy="584.12" r="5" fill="#30363d"/>
<circle cx="475.33" cy="601.90" r="5" fill="#30363d"/>
<circle cx="457.55" cy="584.12" r="5" fill="#30363d"/>
<circle cx="457.55" cy="601.90" r="5" fill="#30363d"/>
<circle cx="439.77" cy="584.12" r="5" fill="#30363d"/>
<circle cx="439.77" cy="601.90" r="5" fill="#30363d"/>
<circle cx="421.99" cy="584.12" r="5" fill="#30363d"/>
<circle cx="421.99" cy="601.90" r="5" fill="#30363d"/>
<circle cx="404.21" cy="584.12" r="5" fill="#30363d"/>
<circle cx="404.21" cy="601.90" r="5" fill="#30363d"/>
<circle cx="386.43" cy="584.12" r="5" fill="#30363d"/>
<circle cx="386.43" cy="601.90" r="5" fill="#30363d"/>
<circle cx="368.65" cy="584.12" r="5" fill="#30363d"/>
<circle cx="368.65" cy="601.90" r="5" fill="#30363d"/>
<rect x="362.15" y="239.80" width="13" height="13" fill="#f85149"/>
<circle cx="368.65" cy="228.52" r="6" fill="#d2a8ff"/>
<circle cx="386.43" cy="246.30" r="6" fill="#8b949e"/>
<circle cx="386.43" cy="228.52" r="6" fill="#8b949e"/>
<circle cx="404.21" cy="246.30" r="6" fill="#3fb950"/>
<circle cx="404.21" cy="228.52" r="6" fill="#30363d"/>
<circle cx="421.99" cy="246.30" r="6" fill="#3fb950"/>
<circle cx="421.99" cy="228.52" r="6" fill="#30363d"/>
<circle cx="439.77" cy="246.30" r="6" fill="#58a6ff"/>
<circle cx="439.77" cy="228.52" r="6" fill="#58a6ff"/>
<circle cx="457.55" cy="246.30" r="6" fill="#58a6ff"/>
<circle cx="457.55" cy="228.52" r="6" fill="#58a6ff"/>
<circle cx="475.33" cy="246.30" r="6" fill="#58a6ff"/>
<circle cx="475.33" cy="228.52" r="6" fill="#58a6ff"/>
<circle cx="493.11" cy="246.30" r="6" fill="#58a6ff"/>
<circle cx="493.11" cy="228.52" r="6" fill="#58a6ff"/>
<circle cx="510.89" cy="246.30" r="6" fill="#58a6ff"/>
<circle cx="510.89" cy="228.52" r="6" fill="#58a6ff"/>
<circle cx="528.67" cy="246.30" r="6" fill="#58a6ff"/>
<circle cx="528.67" cy="228.52" r="6" fill="#58a6ff"/>
<circle cx="546.45" cy="246.30" r="6" fill="#58a6ff"/>
<circle cx="546.45" cy="228.52" r="6" fill="#58a6ff"/>
<circle cx="564.23" cy="246.30" r="6" fill="#58a6ff"/>
<circle cx="564.23" cy="228.52" r="6" fill="#58a6ff"/>
<circle cx="582.01" cy="246.30" r="6" fill="#f0883e"/>
<circle cx="582.01" cy="228.52" r="6" fill="#f0883e"/>
<circle cx="599.79" cy="246.30" r="6" fill="#f0883e"/>
<circle cx="599.79" cy="228.52" r="6" fill="#30363d"/>
<circle cx="617.57" cy="246.30" r="6" fill="#30363d"/>
<circle cx="617.57" cy="228.52" r="6" fill="#30363d"/>
<circle cx="635.35" cy="246.30" r="6" fill="#30363d"/>
<circle cx="635.35" cy="228.52" r="6" fill="#30363d"/>
<circle cx="653.13" cy="246.30" r="6" fill="#8b949e"/>
<circle cx="653.13" cy="228.52" r="6" fill="#8b949e"/>
<circle cx="670.91" cy="246.30" r="6" fill="#8b949e"/>
<circle cx="670.91" cy="228.52" r="6" fill="#8b949e"/>
<circle cx="688.69" cy="246.30" r="6" fill="#30363d"/>
<circle cx="688.69" cy="228.52" r="6" fill="#30363d"/>
<circle cx="706.47" cy="246.30" r="6" fill="#30363d"/>
<circle cx="706.47" cy="228.52" r="6" fill="#30363d"/>
<text transform="translate(435.77,258.30) rotate(90)" font-size="12" fill="#58a6ff">9 D0 → T19</text>
<line x1="439.77" y1="221.52" x2="439.77" y2="199.00" stroke="#58a6ff" stroke-width="1"/>
<text transform="translate(443.77,197.00) rotate(-90)" font-size="12" fill="#58a6ff">10 D1 → T18</text>
<text transform="translate(453.55,258.30) rotate(90)" font-size="12" fill="#58a6ff">11 D2 → T14</text>
<line x1="457.55" y1="221.52" x2="457.55" y2="199.00" stroke="#58a6ff" stroke-width="1"/>
<text transform="translate(461.55,197.00) rotate(-90)" font-size="12" fill="#58a6ff">12 D3 → T15</text>
<text transform="translate(471.33,258.30) rotate(90)" font-size="12" fill="#58a6ff">13 D4 → T40</text>
<line x1="475.33" y1="221.52" x2="475.33" y2="199.00" stroke="#58a6ff" stroke-width="1"/>
<text transform="translate(479.33,197.00) rotate(-90)" font-size="12" fill="#58a6ff">14 D5 → T41</text>
<text transform="translate(489.11,258.30) rotate(90)" font-size="12" fill="#58a6ff">15 D6 → T17</text>
<line x1="493.11" y1="221.52" x2="493.11" y2="199.00" stroke="#58a6ff" stroke-width="1"/>
<text transform="translate(497.11,197.00) rotate(-90)" font-size="12" fill="#58a6ff">16 D7 → T16</text>
<text transform="translate(506.89,258.30) rotate(90)" font-size="12" fill="#58a6ff">17 D8 → T22</text>
<line x1="510.89" y1="221.52" x2="510.89" y2="199.00" stroke="#58a6ff" stroke-width="1"/>
<text transform="translate(514.89,197.00) rotate(-90)" font-size="12" fill="#58a6ff">18 D9 → T23</text>
<text transform="translate(524.67,258.30) rotate(90)" font-size="12" fill="#58a6ff">19 D10 → T20</text>
<line x1="528.67" y1="221.52" x2="528.67" y2="199.00" stroke="#58a6ff" stroke-width="1"/>
<text transform="translate(532.67,197.00) rotate(-90)" font-size="12" fill="#58a6ff">20 D11 → T21</text>
<text transform="translate(542.45,258.30) rotate(90)" font-size="12" fill="#58a6ff">21 D12 → T38</text>
<line x1="546.45" y1="221.52" x2="546.45" y2="199.00" stroke="#58a6ff" stroke-width="1"/>
<text transform="translate(550.45,197.00) rotate(-90)" font-size="12" fill="#58a6ff">22 D13 → T39</text>
<text transform="translate(560.23,258.30) rotate(90)" font-size="12" fill="#58a6ff">23 D14 → T26</text>
<line x1="564.23" y1="221.52" x2="564.23" y2="199.00" stroke="#58a6ff" stroke-width="1"/>
<text transform="translate(568.23,197.00) rotate(-90)" font-size="12" fill="#58a6ff">24 D15 → T27</text>
<text transform="translate(578.01,258.30) rotate(90)" font-size="12" fill="#f0883e">25 SOR → T3</text>
<line x1="582.01" y1="221.52" x2="582.01" y2="199.00" stroke="#f0883e" stroke-width="1"/>
<text transform="translate(586.01,197.00) rotate(-90)" font-size="12" fill="#f0883e">26 STROBE → T2</text>
<text transform="translate(595.79,258.30) rotate(90)" font-size="12" fill="#f0883e">27 BUSY → T4</text>
<text transform="translate(364.65,258.30) rotate(90)" font-size="12" fill="#f85149">1 5V → fan +</text>
<line x1="368.65" y1="221.52" x2="368.65" y2="199.00" stroke="#d2a8ff" stroke-width="1"/>
<text transform="translate(372.65,197.00) rotate(-90)" font-size="12" fill="#d2a8ff">2 3.3V  (leave)</text>
<text transform="translate(382.43,258.30) rotate(90)" font-size="12" fill="#8b949e">3 GND → fan −</text>
<line x1="386.43" y1="221.52" x2="386.43" y2="199.00" stroke="#8b949e" stroke-width="1"/>
<text transform="translate(390.43,197.00) rotate(-90)" font-size="12" fill="#8b949e">4 GND → Teensy</text>
<text transform="translate(400.21,258.30) rotate(90)" font-size="12" fill="#3fb950">5 FAN PWM (10 kΩ to GND)</text>
<text transform="translate(417.99,258.30) rotate(90)" font-size="12" fill="#3fb950">7 FAN TACH</text>
<text transform="translate(649.13,258.30) rotate(90)" font-size="12" fill="#8b949e">33 GND → Teensy</text>
<line x1="653.13" y1="221.52" x2="653.13" y2="199.00" stroke="#8b949e" stroke-width="1"/>
<text transform="translate(657.13,197.00) rotate(-90)" font-size="12" fill="#8b949e">34 GND → Teensy</text>
<text transform="translate(666.91,258.30) rotate(90)" font-size="12" fill="#8b949e">35 GND → Teensy</text>
<line x1="670.91" y1="221.52" x2="670.91" y2="199.00" stroke="#8b949e" stroke-width="1"/>
<text transform="translate(674.91,197.00) rotate(-90)" font-size="12" fill="#8b949e">36 GND</text>
<line x1="242.3" y1="289.7" x2="220.0" y2="240.2" stroke="#f85149" stroke-width="1.5"/>
<text x="214.0" y="245.2" font-size="15" fill="#f85149" text-anchor="end" font-weight="bold">J8 ‘JTAG’ USB-C</text>
<text x="214.0" y="262.2" font-size="13" fill="#e6edf3" text-anchor="end">5 V in, 2 A+ USB-A charger</text>
<text x="214.0" y="279.2" font-size="13" fill="#e6edf3" text-anchor="end">A-to-C cable (not C-to-C)</text>
<text x="214.0" y="296.2" font-size="13" fill="#8b949e" text-anchor="end">(also the JTAG programmer)</text>
<line x1="242.3" y1="384.9" x2="220.0" y2="393.4" stroke="#8b949e" stroke-width="1.5"/>
<text x="214.0" y="398.4" font-size="15" fill="#e6edf3" text-anchor="end" font-weight="bold">J2 ‘UART’ USB-C</text>
<text x="214.0" y="415.4" font-size="13" fill="#8b949e" text-anchor="end">console to the PC (A-to-C)</text>
<text x="214.0" y="432.4" font-size="13" fill="#8b949e" text-anchor="end">(watch_boot.ps1)</text>
<line x1="240.9" y1="513.7" x2="220.0" y2="543.7" stroke="#58a6ff" stroke-width="1.5"/>
<text x="214.0" y="548.7" font-size="15" fill="#58a6ff" text-anchor="end" font-weight="bold">HDMI → monitor</text>
<text x="214.0" y="565.7" font-size="13" fill="#e6edf3" text-anchor="end">the GPU: 1280×720 @ 60</text>
<line x1="896.1" y1="373.3" x2="920.0" y2="342.1" stroke="#3fb950" stroke-width="1.5"/>
<text x="926.0" y="347.1" font-size="15" fill="#3fb950" text-anchor="start" font-weight="bold">ETH-PS → Orange Pi</text>
<text x="926.0" y="364.1" font-size="13" fill="#e6edf3" text-anchor="start">eth0: 10.20.0.2 + 10.77.0.2</text>
<text x="926.0" y="381.1" font-size="13" fill="#8b949e" text-anchor="start">GPU 7777 • engine 8093</text>
<text x="926.0" y="398.1" font-size="13" fill="#8b949e" text-anchor="start">RAM (nbd) 10809</text>
<line x1="896.1" y1="503.5" x2="920.0" y2="523.5" stroke="#8b949e" stroke-width="1.5"/>
<text x="926.0" y="528.5" font-size="15" fill="#e6edf3" text-anchor="start" font-weight="bold">ETH-PL</text>
<text x="926.0" y="545.5" font-size="13" fill="#8b949e" text-anchor="start">eth1, spare</text>
<line x1="896.1" y1="255.6" x2="920.0" y2="211.6" stroke="#8b949e" stroke-width="1.5"/>
<text x="926.0" y="216.6" font-size="15" fill="#e6edf3" text-anchor="start" font-weight="bold">boot jumper (above USB-A):</text>
<text x="926.0" y="233.6" font-size="13" fill="#3fb950" text-anchor="start">cap on the SD pair</text>
<circle cx="60" cy="682" r="7" fill="#58a6ff"/><text x="74" y="687" font-size="15" fill="#e6edf3">Teensy data D0–D15 (Teensy pin T#)</text>
<circle cx="430" cy="682" r="7" fill="#f0883e"/><text x="444" y="687" font-size="15" fill="#e6edf3">SOR / STROBE / BUSY</text>
<circle cx="800" cy="682" r="7" fill="#8b949e"/><text x="814" y="687" font-size="15" fill="#e6edf3">GND</text>
<circle cx="60" cy="708" r="7" fill="#f85149"/><text x="74" y="713" font-size="15" fill="#e6edf3">5 V (fan only)</text>
<circle cx="430" cy="708" r="7" fill="#d2a8ff"/><text x="444" y="713" font-size="15" fill="#e6edf3">3.3 V — leave</text>
<circle cx="800" cy="708" r="7" fill="#3fb950"/><text x="814" y="713" font-size="15" fill="#e6edf3">fan PWM / tach</text>
<text x="60" y="751" font-size="14" fill="#8b949e">Only GND and the 19 signal wires join the Teensy and the FPGA (3.3 V both sides, no resistors).</text>
<text x="60" y="771" font-size="14" fill="#8b949e">Never wire JM1 pin 1 (5 V) or pin 2 (3.3 V) to the Teensy — it is powered by the Pi's USB.</text>
<text x="60" y="791" font-size="14" fill="#8b949e">Never power the board from J8 and JM1 pin 1 at the same time: they are one net.</text>
</svg>
